<svg xmlns="http://www.w3.org/2000/svg" xmlns:xlink="http://www.w3.org/1999/xlink" width="500" zoomAndPan="magnify" viewBox="0 0 375 374.999991" height="500" preserveAspectRatio="xMidYMid meet" version="1.0"><defs><g/></defs><g fill="#ffffff" fill-opacity="1"><g transform="translate(11.664215, 208.655437)"><g><path d="M 3.109375 -17.609375 L 3.109375 -23.921875 L 33.796875 -36.8125 L 33.796875 -32.0625 L 7.34375 -20.78125 L 33.796875 -9.46875 L 33.796875 -4.75 Z M 3.109375 -17.609375 "/></g></g></g><g fill="#ffffff" fill-opacity="1"><g transform="translate(63.041588, 232.366485)"><g><path d="M 117.71875 -156.640625 C 111.851562 -148.503906 105.800781 -140.515625 99.5625 -132.671875 C 91.113281 -114.328125 84.070312 -95.410156 78.4375 -75.921875 C 86.582031 -76.148438 94.421875 -75.695312 101.953125 -74.5625 C 102.566406 -74.332031 102.96875 -73.96875 103.15625 -73.46875 C 103.34375 -72.976562 103.285156 -72.484375 102.984375 -71.984375 C 102.679688 -71.492188 102.1875 -71.285156 101.5 -71.359375 C 93.351562 -72.191406 85.207031 -72.15625 77.0625 -71.25 C 76.457031 -69.113281 75.847656 -66.976562 75.234375 -64.84375 C 70.441406 -48.175781 66.5625 -31.316406 63.59375 -14.265625 C 63.21875 -12.285156 62.722656 -8.859375 62.109375 -3.984375 C 61.503906 0.878906 61.085938 6.03125 60.859375 11.46875 C 60.628906 16.914062 60.953125 21.5625 61.828125 25.40625 C 62.703125 29.25 64.507812 31.171875 67.25 31.171875 C 68.007812 31.097656 68.578125 31.34375 68.953125 31.90625 C 69.335938 32.476562 69.414062 33.066406 69.1875 33.671875 C 68.957031 34.285156 68.460938 34.671875 67.703125 34.828125 C 64.660156 35.128906 62.320312 34.191406 60.6875 32.015625 C 59.050781 29.847656 58.003906 27.4375 57.546875 24.78125 C 55.867188 15.875 56.171875 3.050781 58.453125 -13.6875 C 60.734375 -30.4375 64.3125 -48.40625 69.1875 -67.59375 C 69.34375 -68.28125 69.191406 -68.847656 68.734375 -69.296875 C 68.273438 -69.753906 67.703125 -69.945312 67.015625 -69.875 C 61.460938 -68.8125 55.945312 -67.476562 50.46875 -65.875 C 47.875 -65.113281 45.320312 -64.238281 42.8125 -63.25 C 31.925781 -50.082031 21.347656 -36.609375 11.078125 -22.828125 C 6.273438 -16.285156 1.9375 -9.628906 -1.9375 -2.859375 C -3.457031 -0.722656 -5.226562 0.242188 -7.25 0.046875 C -9.269531 -0.140625 -10.847656 -1.050781 -11.984375 -2.6875 C -13.128906 -4.320312 -13.171875 -6.316406 -12.109375 -8.671875 C -3.273438 -22.828125 6.46875 -36.265625 17.125 -48.984375 C 17.65625 -49.585938 18.148438 -50.195312 18.609375 -50.8125 C 18.910156 -51.1875 19.21875 -51.566406 19.53125 -51.953125 C 14.882812 -48.898438 10.582031 -45.472656 6.625 -41.671875 C 5.707031 -40.753906 4.640625 -40.296875 3.421875 -40.296875 C 2.203125 -40.296875 1.140625 -40.71875 0.234375 -41.5625 C -0.679688 -42.550781 -1.140625 -43.691406 -1.140625 -44.984375 C -1.140625 -46.273438 -0.644531 -47.378906 0.34375 -48.296875 C 9.394531 -55.984375 19.859375 -62.070312 31.734375 -66.5625 C 38.890625 -75.164062 46.082031 -83.691406 53.3125 -92.140625 C 67.394531 -108.503906 81.210938 -125.097656 94.765625 -141.921875 C 98.421875 -149.304688 101.957031 -154.976562 105.375 -158.9375 C 107.28125 -161.21875 109.867188 -162.851562 113.140625 -163.84375 C 115.273438 -164.144531 116.851562 -163.476562 117.875 -161.84375 C 118.90625 -160.207031 118.851562 -158.472656 117.71875 -156.640625 Z M 71.25 -75.46875 C 74.59375 -87.875 78.207031 -99.671875 82.09375 -110.859375 C 75.625 -102.941406 69.113281 -95.066406 62.5625 -87.234375 C 58.457031 -82.285156 54.3125 -77.296875 50.125 -72.265625 C 57.125 -73.867188 64.164062 -74.9375 71.25 -75.46875 Z M 71.25 -75.46875 "/></g></g><g transform="translate(154.840089, 232.366485)"><g><path d="M 62.21875 -157.671875 C 63.289062 -159.648438 64.738281 -160.695312 66.5625 -160.8125 C 68.382812 -160.925781 69.941406 -160.335938 71.234375 -159.046875 C 72.535156 -157.753906 72.921875 -155.960938 72.390625 -153.671875 C 67.054688 -138.835938 61.460938 -124.035156 55.609375 -109.265625 C 46.847656 -81.554688 39.539062 -53.507812 33.6875 -25.125 C 31.320312 -14.238281 29.644531 -3.238281 28.65625 7.875 C 28.65625 8.257812 28.617188 8.679688 28.546875 9.140625 C 28.316406 11.796875 28.546875 14.34375 29.234375 16.78125 C 29.234375 16.9375 29.269531 17.050781 29.34375 17.125 C 29.945312 17.507812 30.226562 17.96875 30.1875 18.5 C 30.15625 19.03125 29.929688 19.46875 29.515625 19.8125 C 29.097656 20.15625 28.582031 20.210938 27.96875 19.984375 C 27.96875 19.898438 27.96875 19.859375 27.96875 19.859375 C 27.738281 19.785156 27.550781 19.675781 27.40625 19.53125 C 27.320312 19.445312 27.242188 19.367188 27.171875 19.296875 L 26.9375 19.0625 C 25.570312 17.164062 24.925781 13.644531 25 8.5 C 25.082031 3.363281 25.484375 -2.09375 26.203125 -7.875 C 26.921875 -13.664062 27.585938 -18.578125 28.203125 -22.609375 C 28.429688 -23.972656 28.582031 -25.113281 28.65625 -26.03125 C 29.644531 -31.664062 30.632812 -37.257812 31.625 -42.8125 C 30.632812 -42.507812 29.644531 -42.4375 28.65625 -42.59375 C 26.976562 -38.550781 25.207031 -34.265625 23.34375 -29.734375 C 21.476562 -25.210938 19.75 -21.085938 18.15625 -17.359375 C 16.707031 -13.929688 15.1875 -10.539062 13.59375 -7.1875 C 13.4375 -6.882812 13.28125 -6.617188 13.125 -6.390625 C 12.59375 -5.097656 11.832031 -3.804688 10.84375 -2.515625 C 10.3125 -1.753906 9.585938 -1.21875 8.671875 -0.90625 C 8.210938 -0.832031 7.796875 -0.796875 7.421875 -0.796875 C 7.191406 -0.796875 7.019531 -0.796875 6.90625 -0.796875 C 6.789062 -0.796875 6.734375 -0.796875 6.734375 -0.796875 C 6.660156 -0.867188 6.546875 -0.90625 6.390625 -0.90625 C 6.015625 -0.988281 5.671875 -1.066406 5.359375 -1.140625 L 4.21875 -1.484375 C -0.726562 -3.304688 -3.960938 -6.734375 -5.484375 -11.765625 C -6.929688 -17.085938 -6.988281 -22.523438 -5.65625 -28.078125 C -4.320312 -33.640625 -2.207031 -38.703125 0.6875 -43.265625 C 3.195312 -47.222656 6.375 -50.570312 10.21875 -53.3125 C 14.0625 -56.050781 18.421875 -57.269531 23.296875 -56.96875 C 24.585938 -56.894531 25.878906 -56.664062 27.171875 -56.28125 C 29.535156 -62.21875 31.859375 -68.15625 34.140625 -74.09375 C 37.640625 -83.382812 41.101562 -92.710938 44.53125 -102.078125 C 47.414062 -113.492188 50.613281 -124.796875 54.125 -135.984375 C 56.40625 -143.367188 59.101562 -150.597656 62.21875 -157.671875 Z M 8.109375 -8.328125 Z M 17.703125 -33.453125 C 19.453125 -37.410156 21.125 -41.40625 22.71875 -45.4375 C 20.507812 -45.96875 18.359375 -45.679688 16.265625 -44.578125 C 14.171875 -43.472656 12.328125 -42.046875 10.734375 -40.296875 C 5.628906 -34.441406 2.660156 -27.671875 1.828125 -19.984375 C 1.597656 -17.847656 1.785156 -15.734375 2.390625 -13.640625 C 3.003906 -11.546875 4.265625 -9.96875 6.171875 -8.90625 C 6.847656 -10.125 7.492188 -11.378906 8.109375 -12.671875 C 8.253906 -12.972656 8.40625 -13.316406 8.5625 -13.703125 C 11.757812 -20.242188 14.804688 -26.828125 17.703125 -33.453125 Z M 33.5625 -53.3125 C 33.71875 -53.925781 33.832031 -54.578125 33.90625 -55.265625 C 33.988281 -55.566406 34.066406 -55.832031 34.140625 -56.0625 C 33.835938 -55.375 33.53125 -54.648438 33.21875 -53.890625 C 33.21875 -53.816406 33.179688 -53.738281 33.109375 -53.65625 C 33.265625 -53.507812 33.414062 -53.394531 33.5625 -53.3125 Z M 33.5625 -53.3125 "/></g></g><g transform="translate(209.302633, 232.366485)"><g><path d="M 0.578125 -43.953125 C 0.578125 -43.953125 0.578125 -43.914062 0.578125 -43.84375 C 0.578125 -43.914062 0.578125 -43.953125 0.578125 -43.953125 Z M 62.453125 28.09375 C 62.835938 28.164062 63.125 28.332031 63.3125 28.59375 C 63.5 28.863281 63.59375 29.148438 63.59375 29.453125 C 63.519531 29.835938 63.367188 30.125 63.140625 30.3125 C 62.910156 30.5 62.601562 30.59375 62.21875 30.59375 C 49.132812 29.226562 36.160156 29.648438 23.296875 31.859375 C 22.835938 31.929688 22.242188 32.195312 21.515625 32.65625 C 20.796875 33.113281 20.113281 33.585938 19.46875 34.078125 C 18.820312 34.578125 18.457031 35.015625 18.375 35.390625 C 13.28125 48.710938 7.707031 60.796875 1.65625 71.640625 C -4.394531 82.484375 -10.617188 89.503906 -17.015625 92.703125 L -17.125 92.703125 C -18.800781 93.390625 -20.398438 93.332031 -21.921875 92.53125 C -23.441406 91.738281 -24.617188 90.582031 -25.453125 89.0625 C -28.117188 83.425781 -28.785156 77.160156 -27.453125 70.265625 C -26.117188 63.378906 -23.703125 57.425781 -20.203125 52.40625 C -16.785156 47.300781 -12.617188 43.054688 -7.703125 39.671875 C -2.796875 36.285156 2.546875 33.601562 8.328125 31.625 C 8.554688 31.550781 8.957031 31.171875 9.53125 30.484375 C 10.101562 29.796875 10.632812 29.050781 11.125 28.25 C 11.625 27.457031 11.988281 26.796875 12.21875 26.265625 C 16.550781 12.484375 20.46875 -0.988281 23.96875 -14.15625 C 24.8125 -17.125 25.613281 -20.015625 26.375 -22.828125 C 26.070312 -22.378906 25.425781 -21.390625 24.4375 -19.859375 C 23.144531 -17.734375 21.523438 -15.1875 19.578125 -12.21875 C 17.640625 -9.25 15.695312 -6.582031 13.75 -4.21875 C 11.8125 -1.863281 10.234375 -0.535156 9.015625 -0.234375 C 8.941406 -0.148438 8.867188 -0.109375 8.796875 -0.109375 C 8.640625 -0.109375 8.445312 -0.0703125 8.21875 0 C 4.113281 0.601562 0.914062 -0.84375 -1.375 -4.34375 C -3.5 -8.300781 -4.273438 -13.226562 -3.703125 -19.125 C -3.140625 -25.019531 -2.207031 -30.707031 -0.90625 -36.1875 C -0.300781 -39.082031 0.191406 -41.632812 0.578125 -43.84375 C 0.578125 -43.84375 0.578125 -43.804688 0.578125 -43.734375 C 0.578125 -43.804688 0.578125 -43.84375 0.578125 -43.84375 C 0.578125 -43.84375 0.578125 -43.878906 0.578125 -43.953125 C 0.796875 -46.773438 1.894531 -48.679688 3.875 -49.671875 C 5.851562 -50.660156 7.867188 -50.695312 9.921875 -49.78125 C 11.984375 -48.863281 13.164062 -47 13.46875 -44.1875 C 13.46875 -42.507812 13.238281 -40.988281 12.78125 -39.625 C 12.78125 -39.539062 12.78125 -39.460938 12.78125 -39.390625 C 12.101562 -37.023438 11.421875 -34.703125 10.734375 -32.421875 C 10.503906 -31.585938 10.238281 -30.789062 9.9375 -30.03125 C 8.71875 -25.988281 7.648438 -22.03125 6.734375 -18.15625 C 6.503906 -16.9375 6.3125 -15.488281 6.15625 -13.8125 C 6.007812 -12.132812 6.007812 -10.570312 6.15625 -9.125 C 6.3125 -7.6875 6.769531 -6.816406 7.53125 -6.515625 C 9.207031 -6.515625 11.925781 -9.382812 15.6875 -15.125 C 19.457031 -20.875 23.1875 -27.328125 26.875 -34.484375 C 30.570312 -41.640625 33.222656 -47.269531 34.828125 -51.375 C 34.828125 -51.457031 34.828125 -51.535156 34.828125 -51.609375 C 34.828125 -51.679688 34.863281 -51.796875 34.9375 -51.953125 C 35.007812 -52.023438 35.046875 -52.140625 35.046875 -52.296875 C 35.128906 -52.441406 35.207031 -52.628906 35.28125 -52.859375 C 36.5 -54.910156 38.078125 -55.972656 40.015625 -56.046875 C 41.953125 -56.128906 43.585938 -55.46875 44.921875 -54.0625 C 46.253906 -52.65625 46.617188 -50.8125 46.015625 -48.53125 C 44.335938 -43.195312 42.660156 -37.789062 40.984375 -32.3125 C 39.234375 -26.375 37.445312 -20.515625 35.625 -14.734375 C 35.09375 -12.984375 34.445312 -11.003906 33.6875 -8.796875 C 30.5625 1.328125 26.335938 13.734375 21.015625 28.421875 C 22.984375 28.046875 24.921875 27.742188 26.828125 27.515625 C 38.773438 26.367188 50.648438 26.5625 62.453125 28.09375 Z M -17.125 85.40625 C -12.632812 82.207031 -8.085938 75.984375 -3.484375 66.734375 C 1.117188 57.484375 5.210938 47.226562 8.796875 35.96875 C 1.109375 38.851562 -5.53125 43.285156 -11.125 49.265625 C -16.726562 55.242188 -20.175781 62.378906 -21.46875 70.671875 C -21.769531 72.578125 -21.898438 74.800781 -21.859375 77.34375 C -21.828125 79.894531 -21.429688 82.203125 -20.671875 84.265625 C -20.359375 84.941406 -19.859375 85.394531 -19.171875 85.625 C -18.492188 85.851562 -17.8125 85.78125 -17.125 85.40625 Z M -17.125 85.40625 "/></g></g><g transform="translate(263.765176, 232.366485)"><g><path d="M 32.421875 -128.78125 C 26.253906 -112.414062 20.71875 -95.765625 15.8125 -78.828125 C 10.90625 -61.898438 7.082031 -44.796875 4.34375 -27.515625 C 4.257812 -27.359375 4.21875 -27.164062 4.21875 -26.9375 C 3.914062 -25.039062 3.628906 -22.566406 3.359375 -19.515625 C 3.097656 -16.472656 3.0625 -13.546875 3.25 -10.734375 C 3.445312 -7.921875 4.078125 -5.90625 5.140625 -4.6875 C 6.890625 -3.539062 9.800781 -5.097656 13.875 -9.359375 C 17.945312 -13.617188 22.128906 -18.71875 26.421875 -24.65625 C 30.722656 -30.59375 34.132812 -35.46875 36.65625 -39.28125 C 37.1875 -40.039062 37.640625 -40.6875 38.015625 -41.21875 C 38.328125 -41.59375 38.726562 -41.742188 39.21875 -41.671875 C 39.707031 -41.597656 40.085938 -41.390625 40.359375 -41.046875 C 40.628906 -40.703125 40.648438 -40.300781 40.421875 -39.84375 C 38.515625 -36.644531 35.445312 -32.019531 31.21875 -25.96875 C 27 -19.914062 22.566406 -14.265625 17.921875 -9.015625 C 13.273438 -3.765625 9.359375 -0.757812 6.171875 0 C 5.941406 0.0703125 5.710938 0.109375 5.484375 0.109375 C 5.484375 0.109375 5.441406 0.109375 5.359375 0.109375 C 5.140625 0.109375 4.914062 0.109375 4.6875 0.109375 C 1.71875 -0.648438 -0.164062 -2.550781 -0.96875 -5.59375 C -1.769531 -8.632812 -2.207031 -11.523438 -2.28125 -14.265625 C -2.28125 -14.347656 -2.28125 -14.460938 -2.28125 -14.609375 C -2.351562 -19.179688 -2.164062 -23.710938 -1.71875 -28.203125 C 0.257812 -46.015625 3.382812 -63.597656 7.65625 -80.953125 C 10.769531 -94.046875 14.226562 -107.0625 18.03125 -120 C 21.84375 -132.9375 26.488281 -145.570312 31.96875 -157.90625 C 32.726562 -159.425781 33.890625 -160.472656 35.453125 -161.046875 C 37.015625 -161.617188 38.554688 -161.519531 40.078125 -160.75 C 41.671875 -159.988281 42.734375 -158.804688 43.265625 -157.203125 C 43.804688 -155.609375 43.691406 -154.015625 42.921875 -152.421875 C 38.972656 -144.804688 35.472656 -136.925781 32.421875 -128.78125 Z M 32.421875 -128.78125 "/></g></g></g><g fill="#ffffff" fill-opacity="1"><g transform="translate(301.436107, 232.366485)"><g/></g></g><g fill="#ffffff" fill-opacity="1"><g transform="translate(310.347639, 208.663376)"><g><path d="M 0 0.609375 L 12.65625 -45.703125 L 17.515625 -45.703125 L 4.984375 0.609375 Z M 0 0.609375 "/></g></g></g><g fill="#ffffff" fill-opacity="1"><g transform="translate(327.867341, 208.663376)"><g><path d="M 3.109375 -4.734375 L 3.109375 -9.453125 L 29.53125 -20.75 L 3.109375 -32.03125 L 3.109375 -36.765625 L 33.75 -23.890625 L 33.75 -17.578125 Z M 3.109375 -4.734375 "/></g></g></g></svg>